<?xml version="1.0" encoding="utf-8"?>
<!-- Generator: Adobe Illustrator 17.0.0, SVG Export Plug-In . SVG Version: 6.00 Build 0)  -->
<!DOCTYPE svg PUBLIC "-//W3C//DTD SVG 1.1//EN" "http://www.w3.org/Graphics/SVG/1.1/DTD/svg11.dtd">
<svg version="1.1"
	 id="Layer_1" xmlns:dc="http://purl.org/dc/elements/1.1/" xmlns:cc="http://creativecommons.org/ns#" xmlns:rdf="http://www.w3.org/1999/02/22-rdf-syntax-ns#" xmlns:svg="http://www.w3.org/2000/svg" xmlns:sodipodi="http://sodipodi.sourceforge.net/DTD/sodipodi-0.dtd" xmlns:inkscape="http://www.inkscape.org/namespaces/inkscape" inkscape:export-ydpi="14.358373" inkscape:export-xdpi="14.358373" inkscape:export-filename="C:\Users\Joshua Park\Desktop\Files\Programming\Baka MPlayer (Git)\Baka MPlayer\Resources\MainForm\playlistButton\noun_project_5944.png" sodipodi:docname="noun_project_5194.svg" inkscape:version="0.48.4 r9939"
	 xmlns="http://www.w3.org/2000/svg" xmlns:xlink="http://www.w3.org/1999/xlink" x="0px" y="0px" width="100px" height="100px"
	 viewBox="0 0 100 100" enable-background="new 0 0 100 100" xml:space="preserve">
<sodipodi:namedview  inkscape:cy="51.549409" inkscape:cx="51.481578" inkscape:zoom="4.2992092" showguides="true" showgrid="false" guidetolerance="10" gridtolerance="10" objecttolerance="10" borderopacity="1" pagecolor="#ffffff" bordercolor="#666666" id="namedview3009" inkscape:current-layer="Layer_1" inkscape:window-maximized="1" inkscape:window-y="-8" inkscape:window-x="-8" inkscape:snap-center="true" inkscape:snap-bbox="true" inkscape:snap-page="true" inkscape:snap-global="true" inkscape:guide-bbox="true" inkscape:window-height="1017" inkscape:window-width="1920" inkscape:pageshadow="2" inkscape:pageopacity="0">
	</sodipodi:namedview>
<path id="path3015" fill="#7D7D7D" d="M50-28.344C6.728-28.344-28.344,6.728-28.344,50S6.728,128.344,50,128.344
	S128.344,93.272,128.344,50S93.272-28.344,50-28.344z"/>
<g id="g3796" transform="translate(0,0.9868423)">
	<polygon id="polygon3003" points="84.134,29.788 95.575,29.788 95.575,17.185 4.425,17.185 4.425,25.296 4.425,29.788 	"/>
	<polygon id="polygon3005" points="4.425,41.846 4.425,50.825 4.425,55.315 77.979,55.315 77.979,50.825 77.979,41.846 	"/>
	<polygon id="polygon3007" points="84.134,80.841 95.575,80.841 95.575,67.37 84.134,67.37 4.425,67.37 4.425,80.841 	"/>
</g>
</svg>
