<?xml version="1.0" encoding="UTF-8" standalone="no"?>
<svg
   xmlns:dc="http://purl.org/dc/elements/1.1/"
   xmlns:cc="http://creativecommons.org/ns#"
   xmlns:rdf="http://www.w3.org/1999/02/22-rdf-syntax-ns#"
   xmlns:svg="http://www.w3.org/2000/svg"
   xmlns="http://www.w3.org/2000/svg"
   xmlns:sodipodi="http://sodipodi.sourceforge.net/DTD/sodipodi-0.dtd"
   xmlns:inkscape="http://www.inkscape.org/namespaces/inkscape"
   version="1.1"
   id="Layer_1"
   x="0px"
   y="0px"
   width="100px"
   height="100px"
   viewBox="0 0 100 100"
   enable-background="new 0 0 100 100"
   xml:space="preserve"
   inkscape:version="0.48.4 r9939"
   sodipodi:docname="noun_project_5194.svg"
   inkscape:export-filename="C:\Users\Joshua Park\Desktop\Files\Programming\Baka MPlayer (Git)\Baka MPlayer\Resources\MainForm\playlistButton\noun_project_5944.png"
   inkscape:export-xdpi="14.358373"
   inkscape:export-ydpi="14.358373"><metadata
   id="metadata3013"><rdf:RDF><cc:Work
       rdf:about=""><dc:format>image/svg+xml</dc:format><dc:type
         rdf:resource="http://purl.org/dc/dcmitype/StillImage" /><dc:title></dc:title></cc:Work></rdf:RDF></metadata><defs
   id="defs3011">
	
	
	
</defs><sodipodi:namedview
   pagecolor="#ffffff"
   bordercolor="#666666"
   borderopacity="1"
   objecttolerance="10"
   gridtolerance="10"
   guidetolerance="10"
   inkscape:pageopacity="0"
   inkscape:pageshadow="2"
   inkscape:window-width="1920"
   inkscape:window-height="1017"
   id="namedview3009"
   showgrid="false"
   showguides="true"
   inkscape:guide-bbox="true"
   inkscape:snap-global="true"
   inkscape:snap-page="true"
   inkscape:snap-bbox="true"
   inkscape:snap-center="true"
   inkscape:zoom="4.2992092"
   inkscape:cx="51.481578"
   inkscape:cy="51.549409"
   inkscape:window-x="-8"
   inkscape:window-y="-8"
   inkscape:window-maximized="1"
   inkscape:current-layer="Layer_1" />
<path
   style="fill:#7d7d7d;fill-opacity:1;fill-rule:evenodd;stroke:none"
   d="M 50 -28.34375 C 6.7275738 -28.34375 -28.34375 6.7276626 -28.34375 50 C -28.34375 93.272337 6.7275738 128.34375 50 128.34375 C 93.272426 128.34375 128.34375 93.272337 128.34375 50 C 128.34375 6.7276626 93.272426 -28.34375 50 -28.34375 z M 50 -14.53125 C 85.642176 -14.53125 114.53125 14.357895 114.53125 50 C 114.53125 85.642105 85.642176 114.53125 50 114.53125 C 14.357824 114.53125 -14.53125 85.642105 -14.53125 50 C -14.53125 14.357895 14.357824 -14.53125 50 -14.53125 z "
   id="path3015" /><g
   id="g3796"
   transform="translate(0,0.9868423)"><polygon
     transform="matrix(1,0,0,0.77838002,0,2.5283674)"
     clip-rule="evenodd"
     points="84.134,35.021 95.575,35.021 95.575,18.83 4.425,18.83 4.425,29.25 4.425,35.021 "
     id="polygon3003"
     style="fill-rule:evenodd" /><polygon
     transform="matrix(1,0,0,0.77838002,0,10.095325)"
     clip-rule="evenodd"
     points="4.425,40.791 4.425,52.326 4.425,58.094 77.979,58.094 77.979,52.326 77.979,40.791 "
     id="polygon3005"
     style="fill-rule:evenodd" /><polygon
     transform="matrix(1,0,0,0.77838002,0,17.659946)"
     clip-rule="evenodd"
     points="84.134,81.17 95.575,81.17 95.575,63.864 84.134,63.864 4.425,63.864 4.425,81.17 "
     id="polygon3007"
     style="fill-rule:evenodd" /></g>
</svg>