<?xml version="1.0" encoding="UTF-8" standalone="no"?>
<!-- Generator: Adobe Illustrator 17.0.0, SVG Export Plug-In . SVG Version: 6.00 Build 0)  -->

<svg
   xmlns:dc="http://purl.org/dc/elements/1.1/"
   xmlns:cc="http://creativecommons.org/ns#"
   xmlns:rdf="http://www.w3.org/1999/02/22-rdf-syntax-ns#"
   xmlns:svg="http://www.w3.org/2000/svg"
   xmlns="http://www.w3.org/2000/svg"
   xmlns:sodipodi="http://sodipodi.sourceforge.net/DTD/sodipodi-0.dtd"
   xmlns:inkscape="http://www.inkscape.org/namespaces/inkscape"
   version="1.1"
   id="Layer_1"
   inkscape:export-ydpi="71.801628"
   inkscape:export-filename="D:\Files\Programming\Baka MPlayer (Git)\Baka MPlayer\Resources\MainForm\pauseButton\disabled_pause.png"
   sodipodi:docname="disabled_pause.svg"
   inkscape:export-xdpi="71.801628"
   inkscape:version="0.48.4 r9939"
   x="0px"
   y="0px"
   width="34"
   height="49.209999"
   viewBox="0 0 33.999999 49.21"
   enable-background="new 0 0 42.617 49.21"
   xml:space="preserve"><metadata
   id="metadata14"><rdf:RDF><cc:Work
       rdf:about=""><dc:format>image/svg+xml</dc:format><dc:type
         rdf:resource="http://purl.org/dc/dcmitype/StillImage" /><dc:title></dc:title></cc:Work></rdf:RDF></metadata><defs
   id="defs12" />
<sodipodi:namedview
   fit-margin-left="0"
   fit-margin-top="0"
   inkscape:cx="89.369242"
   inkscape:cy="-52.189642"
   inkscape:zoom="0.76"
   showguides="true"
   showgrid="false"
   guidetolerance="10"
   gridtolerance="10"
   objecttolerance="10"
   borderopacity="1"
   bordercolor="#666666"
   pagecolor="#ffffff"
   id="namedview3009"
   fit-margin-bottom="0"
   fit-margin-right="0"
   inkscape:snap-bbox-midpoints="true"
   inkscape:bbox-nodes="true"
   inkscape:bbox-paths="true"
   inkscape:snap-object-midpoints="false"
   inkscape:current-layer="Layer_1"
   inkscape:window-maximized="1"
   inkscape:window-y="-8"
   inkscape:window-x="-8"
   inkscape:snap-center="true"
   inkscape:snap-bbox="true"
   inkscape:snap-page="true"
   inkscape:snap-global="true"
   inkscape:guide-bbox="true"
   inkscape:window-height="1017"
   inkscape:window-width="1920"
   inkscape:pageshadow="2"
   inkscape:pageopacity="0"
   inkscape:snap-bbox-edge-midpoints="true">
	</sodipodi:namedview>
<g
   id="g4"
   transform="matrix(0.93223194,0,0,1,-2.7966965,0)">
	<path
   d="m 10.404,3 c 2.428,0 4.404,1.607 4.404,3.583 v 36.044 c 0,1.976 -1.976,3.583 -4.404,3.583 C 7.976,46.21 6,44.603 6,42.627 V 6.583 C 6,4.607 7.976,3 10.404,3 m 0,-3 C 6.315,0 3,2.947 3,6.583 v 36.044 c 0,3.636 3.315,6.583 7.404,6.583 4.089,0 7.404,-2.947 7.404,-6.583 V 6.583 C 17.808,2.947 14.493,0 10.404,0 l 0,0 z"
   id="path6"
   inkscape:connector-curvature="0"
   style="fill:#808080" />
</g>
<g
   id="g8"
   transform="matrix(0.93223194,0,0,1,-2.9322327,0)">
	<path
   d="m 32.213,3 c 2.428,0 4.404,1.607 4.404,3.583 v 36.044 c 0,1.976 -1.976,3.583 -4.404,3.583 -2.428,0 -4.404,-1.607 -4.404,-3.583 V 6.582 c 0,-0.89 0.412,-1.746 1.161,-2.412 C 29.819,3.416 30.97,3 32.213,3 m 0,-3 c -4.09,0 -7.405,2.947 -7.404,6.583 v 36.044 c 0,3.636 3.315,6.583 7.404,6.583 4.089,0 7.404,-2.947 7.404,-6.583 V 6.583 C 39.617,2.947 36.302,0 32.213,0 l 0,0 z"
   id="path10"
   inkscape:connector-curvature="0"
   style="fill:#808080" />
</g>
</svg>