<?xml version="1.0" encoding="UTF-8" standalone="no"?>
<!-- Generator: Adobe Illustrator 17.0.0, SVG Export Plug-In . SVG Version: 6.00 Build 0)  -->

<svg
   xmlns:dc="http://purl.org/dc/elements/1.1/"
   xmlns:cc="http://creativecommons.org/ns#"
   xmlns:rdf="http://www.w3.org/1999/02/22-rdf-syntax-ns#"
   xmlns:svg="http://www.w3.org/2000/svg"
   xmlns="http://www.w3.org/2000/svg"
   xmlns:sodipodi="http://sodipodi.sourceforge.net/DTD/sodipodi-0.dtd"
   xmlns:inkscape="http://www.inkscape.org/namespaces/inkscape"
   version="1.1"
   id="Layer_1"
   inkscape:version="0.48.4 r9939"
   sodipodi:docname="disabled_next.svg"
   inkscape:export-xdpi="36.571243"
   inkscape:export-filename="D:\Files\Programming\Baka MPlayer (Git)\Baka MPlayer\Resources\MainForm\nextButton\_disabled_next.png"
   inkscape:export-ydpi="36.571243"
   x="0px"
   y="0px"
   width="71.095001"
   height="49.219002"
   viewBox="0 0 71.095001 49.219002"
   enable-background="new 0 0 100 100"
   xml:space="preserve"><metadata
   id="metadata9"><rdf:RDF><cc:Work
       rdf:about=""><dc:format>image/svg+xml</dc:format><dc:type
         rdf:resource="http://purl.org/dc/dcmitype/StillImage" /><dc:title /></cc:Work></rdf:RDF></metadata><defs
   id="defs7" />
<sodipodi:namedview
   bordercolor="#666666"
   pagecolor="#ffffff"
   borderopacity="1"
   objecttolerance="10"
   gridtolerance="10"
   guidetolerance="10"
   showgrid="false"
   showguides="true"
   inkscape:zoom="4.2992092"
   inkscape:cy="26.023416"
   inkscape:cx="42.498614"
   id="namedview3009"
   inkscape:pageopacity="0"
   inkscape:pageshadow="2"
   inkscape:window-width="1920"
   inkscape:window-height="1017"
   inkscape:guide-bbox="true"
   inkscape:snap-global="true"
   inkscape:snap-page="true"
   inkscape:snap-bbox="true"
   inkscape:snap-center="true"
   inkscape:window-x="-8"
   inkscape:window-y="-8"
   inkscape:window-maximized="1"
   inkscape:current-layer="Layer_1"
   inkscape:snap-bbox-edge-midpoints="true"
   inkscape:snap-object-midpoints="false"
   inkscape:bbox-paths="true"
   inkscape:bbox-nodes="true"
   inkscape:snap-bbox-midpoints="true"
   fit-margin-top="0"
   fit-margin-left="0"
   fit-margin-right="0"
   fit-margin-bottom="0">
	</sodipodi:namedview>
<g
   id="path2983"
   transform="translate(-13.344,-23.531)">
	<path
   d="M 79.438,28.531 V 67.75 H 75.094 V 52.25 43.582 28.531 h 4.344 m -39.813,3.652 13.809,7.957 13.805,7.984 -13.803,7.983 -13.811,7.979 v -3.65 -8.669 l -7.504,4.341 -13.777,7.971 V 48.125 32.19 l 13.782,7.954 7.499,4.328 v -8.658 -3.631 m 41.75,-8.652 h -8.219 c -1.696,0 -3.063,1.366 -3.063,3.063 V 44 L 55.937,35.812 34.625,23.531 V 35.812 L 13.344,23.531 V 48.125 72.75 L 34.625,60.437 V 72.75 L 55.938,60.437 70.094,52.249 v 17.438 c 0,1.696 1.366,3.063 3.063,3.063 h 8.219 c 1.696,0 3.063,-1.366 3.063,-3.063 V 26.594 c -10e-4,-1.697 -1.368,-3.063 -3.064,-3.063 l 0,0 z"
   id="path5"
   inkscape:connector-curvature="0"
   style="fill:#808080" />
</g>
</svg>