<?xml version="1.0" encoding="UTF-8" standalone="no"?>
<!-- Generator: Adobe Illustrator 15.1.0, SVG Export Plug-In . SVG Version: 6.00 Build 0)  -->

<svg
   xmlns:dc="http://purl.org/dc/elements/1.1/"
   xmlns:cc="http://creativecommons.org/ns#"
   xmlns:rdf="http://www.w3.org/1999/02/22-rdf-syntax-ns#"
   xmlns:svg="http://www.w3.org/2000/svg"
   xmlns="http://www.w3.org/2000/svg"
   xmlns:sodipodi="http://sodipodi.sourceforge.net/DTD/sodipodi-0.dtd"
   xmlns:inkscape="http://www.inkscape.org/namespaces/inkscape"
   version="1.1"
   id="Layer_1"
   x="0px"
   y="0px"
   width="60px"
   height="100px"
   viewBox="0 0 60 100"
   enable-background="new 0 0 60 100"
   xml:space="preserve"
   inkscape:version="0.48.4 r9939"
   sodipodi:docname="down_mic.svg"
   inkscape:export-filename="D:\Files\Programming\Baka MPlayer (Git)\Baka MPlayer\Resources\MainForm\mic image\down_mic.png"
   inkscape:export-xdpi="18"
   inkscape:export-ydpi="18"><metadata
   id="metadata11"><rdf:RDF><cc:Work
       rdf:about=""><dc:format>image/svg+xml</dc:format><dc:type
         rdf:resource="http://purl.org/dc/dcmitype/StillImage" /><dc:title></dc:title></cc:Work></rdf:RDF></metadata><defs
   id="defs9" /><sodipodi:namedview
   pagecolor="#ffffff"
   bordercolor="#666666"
   borderopacity="1"
   objecttolerance="10"
   gridtolerance="10"
   guidetolerance="10"
   inkscape:pageopacity="0"
   inkscape:pageshadow="2"
   inkscape:window-width="1280"
   inkscape:window-height="818"
   id="namedview7"
   showgrid="false"
   inkscape:zoom="5.84"
   inkscape:cx="-23.424737"
   inkscape:cy="45.614753"
   inkscape:window-x="182"
   inkscape:window-y="106"
   inkscape:window-maximized="0"
   inkscape:current-layer="Layer_1" />
<path
   d="M52,38v14c0,9.757-8.242,18-18,18l0,0h-8c-9.757,0-18-8.243-18-18V38H0v14c0,14.094,11.906,26,26,26v14H9v8h42v-8H34V78l0,0  c14.094,0,26-11.906,26-26V38H52z"
   id="path3"
   style="fill:#f5f5f5;fill-opacity:1"
   inkscape:export-filename="C:\Users\Joshua Park\Desktop\Files\enabled_mic.png"
   inkscape:export-xdpi="22.5"
   inkscape:export-ydpi="22.5" />
<path
   d="M 45.804,10 C 44.788,4.483 39.714,0 34,0 L 26,0 C 19.607,0 14,5.607 14,12 l 0,40 c 0,6.393 5.607,12 12,12 l 8,0 C 39.714,64 44.788,59.517 45.804,54 45.804,12.396479 46,43.326571 46,14"
   id="path5"
   inkscape:connector-curvature="0"
   sodipodi:nodetypes="csssssscc"
   style="fill:#f5f5f5;fill-opacity:1"
   inkscape:export-filename="C:\Users\Joshua Park\Desktop\Files\enabled_mic.png"
   inkscape:export-xdpi="22.5"
   inkscape:export-ydpi="22.5" />
</svg>